<mxfile host="app.diagrams.net" modified="2021-03-19T01:21:18.326Z" agent="5.0 (Macintosh; Intel Mac OS X 10_15_6) AppleWebKit/537.36 (KHTML, like Gecko) Chrome/89.0.4389.82 Safari/537.36" etag="6lez9I8-hw0fzbsYnLE5" version="14.4.8" type="github">
  <diagram id="3ZZgkMrMpcHuPMlteXBm" name="第 1 页">
    <mxGraphModel dx="2065" dy="1080" grid="1" gridSize="10" guides="1" tooltips="1" connect="1" arrows="1" fold="1" page="1" pageScale="1" pageWidth="827" pageHeight="1169" math="0" shadow="0">
      <root>
        <mxCell id="0" />
        <mxCell id="1" parent="0" />
        <mxCell id="qEij2Yaas0XUPH2C4u36-1" value="&lt;font&gt;&lt;font style=&quot;font-size: 18px&quot;&gt;mall-ui&lt;br&gt;&lt;/font&gt;&lt;font style=&quot;font-size: 16px&quot; color=&quot;#3333ff&quot;&gt;*jsp&lt;/font&gt;&lt;br&gt;&lt;/font&gt;" style="ellipse;whiteSpace=wrap;html=1;" vertex="1" parent="1">
          <mxGeometry x="60" y="60" width="120" height="80" as="geometry" />
        </mxCell>
        <mxCell id="qEij2Yaas0XUPH2C4u36-2" value="&lt;font&gt;&lt;font&gt;&lt;font style=&quot;font-size: 18px&quot;&gt;shop-site&lt;/font&gt;&lt;br&gt;&lt;/font&gt;&lt;font style=&quot;font-size: 16px&quot; color=&quot;#3333ff&quot;&gt;*react&lt;/font&gt;&lt;br&gt;&lt;/font&gt;" style="ellipse;whiteSpace=wrap;html=1;fillColor=#fff2cc;strokeColor=#d6b656;" vertex="1" parent="1">
          <mxGeometry x="200" y="60" width="120" height="80" as="geometry" />
        </mxCell>
        <mxCell id="qEij2Yaas0XUPH2C4u36-4" value="&lt;font&gt;&lt;font style=&quot;font-size: 18px&quot;&gt;scm-spa&lt;br&gt;&lt;/font&gt;&lt;font style=&quot;font-size: 16px&quot; color=&quot;#3333ff&quot;&gt;*react&lt;/font&gt;&lt;br&gt;&lt;/font&gt;" style="ellipse;whiteSpace=wrap;html=1;" vertex="1" parent="1">
          <mxGeometry x="620" y="60" width="120" height="80" as="geometry" />
        </mxCell>
        <mxCell id="qEij2Yaas0XUPH2C4u36-5" value="&lt;font&gt;&lt;font style=&quot;font-size: 18px&quot;&gt;crm-spa&lt;br&gt;&lt;/font&gt;&lt;font color=&quot;#3333ff&quot; style=&quot;font-size: 16px&quot;&gt;*react&lt;/font&gt;&lt;br&gt;&lt;/font&gt;" style="ellipse;whiteSpace=wrap;html=1;" vertex="1" parent="1">
          <mxGeometry x="760" y="60" width="120" height="80" as="geometry" />
        </mxCell>
        <mxCell id="qEij2Yaas0XUPH2C4u36-6" value="&lt;font&gt;&lt;font style=&quot;font-size: 18px&quot;&gt;shop-spa&lt;br&gt;&lt;/font&gt;&lt;font style=&quot;font-size: 16px&quot; color=&quot;#3333ff&quot;&gt;*react&lt;/font&gt;&lt;br&gt;&lt;/font&gt;" style="ellipse;whiteSpace=wrap;html=1;" vertex="1" parent="1">
          <mxGeometry x="900" y="60" width="120" height="80" as="geometry" />
        </mxCell>
        <mxCell id="qEij2Yaas0XUPH2C4u36-7" value="&lt;font&gt;&lt;font style=&quot;font-size: 18px&quot;&gt;cms-ui&lt;br&gt;&lt;/font&gt;&lt;font style=&quot;font-size: 16px&quot; color=&quot;#3333ff&quot;&gt;*jsp&lt;/font&gt;&lt;br&gt;&lt;/font&gt;" style="ellipse;whiteSpace=wrap;html=1;" vertex="1" parent="1">
          <mxGeometry x="1040" y="60" width="120" height="80" as="geometry" />
        </mxCell>
        <mxCell id="qEij2Yaas0XUPH2C4u36-8" value="&lt;font&gt;&lt;font style=&quot;font-size: 18px&quot;&gt;ams&lt;br&gt;&lt;/font&gt;&lt;font color=&quot;#3333ff&quot; style=&quot;font-size: 16px&quot;&gt;*混合&lt;/font&gt;&lt;br&gt;&lt;/font&gt;" style="ellipse;whiteSpace=wrap;html=1;" vertex="1" parent="1">
          <mxGeometry x="620" y="160" width="120" height="80" as="geometry" />
        </mxCell>
        <mxCell id="qEij2Yaas0XUPH2C4u36-9" value="&lt;font&gt;&lt;font style=&quot;font-size: 18px&quot;&gt;welfare-spa&lt;br&gt;&lt;/font&gt;&lt;font style=&quot;font-size: 16px&quot; color=&quot;#3333ff&quot;&gt;*jsp&lt;/font&gt;&lt;br&gt;&lt;/font&gt;" style="ellipse;whiteSpace=wrap;html=1;" vertex="1" parent="1">
          <mxGeometry x="1040" y="160" width="120" height="80" as="geometry" />
        </mxCell>
        <mxCell id="qEij2Yaas0XUPH2C4u36-10" value="&lt;font&gt;&lt;span style=&quot;font-size: 18px&quot;&gt;mall-api&lt;br&gt;&lt;/span&gt;&lt;font color=&quot;#3333ff&quot; style=&quot;font-size: 16px&quot;&gt;*spring&lt;/font&gt;&lt;br&gt;&lt;/font&gt;" style="ellipse;whiteSpace=wrap;html=1;" vertex="1" parent="1">
          <mxGeometry x="340" y="60" width="120" height="80" as="geometry" />
        </mxCell>
        <mxCell id="qEij2Yaas0XUPH2C4u36-11" value="&lt;font&gt;&lt;font style=&quot;font-size: 18px&quot;&gt;cms-spa&lt;br&gt;&lt;/font&gt;&lt;font style=&quot;font-size: 16px&quot; color=&quot;#3333ff&quot;&gt;*react&lt;/font&gt;&lt;br&gt;&lt;/font&gt;" style="ellipse;whiteSpace=wrap;html=1;" vertex="1" parent="1">
          <mxGeometry x="760" y="160" width="120" height="80" as="geometry" />
        </mxCell>
        <mxCell id="qEij2Yaas0XUPH2C4u36-12" value="&lt;font&gt;&lt;font style=&quot;font-size: 18px&quot;&gt;ams-spa&lt;br&gt;&lt;/font&gt;&lt;font style=&quot;font-size: 16px&quot; color=&quot;#3333ff&quot;&gt;*react&lt;/font&gt;&lt;br&gt;&lt;/font&gt;" style="ellipse;whiteSpace=wrap;html=1;" vertex="1" parent="1">
          <mxGeometry x="900" y="160" width="120" height="80" as="geometry" />
        </mxCell>
        <mxCell id="qEij2Yaas0XUPH2C4u36-13" value="&lt;font&gt;&lt;font style=&quot;font-size: 18px&quot;&gt;scm&lt;br&gt;&lt;/font&gt;&lt;font style=&quot;font-size: 16px&quot; color=&quot;#3333ff&quot;&gt;*混合&lt;/font&gt;&lt;br&gt;&lt;/font&gt;" style="ellipse;whiteSpace=wrap;html=1;" vertex="1" parent="1">
          <mxGeometry x="620" y="260" width="120" height="80" as="geometry" />
        </mxCell>
        <mxCell id="qEij2Yaas0XUPH2C4u36-14" value="&lt;font&gt;&lt;span style=&quot;font-size: 18px&quot;&gt;scm-api&lt;br&gt;&lt;/span&gt;&lt;span style=&quot;color: rgb(51 , 51 , 255) ; font-size: 16px&quot;&gt;*spring&lt;/span&gt;&lt;br&gt;&lt;/font&gt;" style="ellipse;whiteSpace=wrap;html=1;" vertex="1" parent="1">
          <mxGeometry x="760" y="260" width="120" height="80" as="geometry" />
        </mxCell>
        <mxCell id="qEij2Yaas0XUPH2C4u36-15" value="&lt;font&gt;&lt;span style=&quot;font-size: 18px&quot;&gt;scm-service&lt;br&gt;&lt;/span&gt;&lt;font style=&quot;font-size: 16px&quot; color=&quot;#3333ff&quot;&gt;*spring-boot&lt;/font&gt;&lt;br&gt;&lt;/font&gt;" style="ellipse;whiteSpace=wrap;html=1;" vertex="1" parent="1">
          <mxGeometry x="1040" y="260" width="120" height="80" as="geometry" />
        </mxCell>
        <mxCell id="qEij2Yaas0XUPH2C4u36-16" value="&lt;font&gt;&lt;span style=&quot;font-size: 18px&quot;&gt;member-service&lt;br&gt;&lt;/span&gt;&lt;font color=&quot;#3333ff&quot; style=&quot;font-size: 16px&quot;&gt;*spring-boot&lt;/font&gt;&lt;br&gt;&lt;/font&gt;" style="ellipse;whiteSpace=wrap;html=1;" vertex="1" parent="1">
          <mxGeometry x="60" y="160" width="120" height="80" as="geometry" />
        </mxCell>
        <mxCell id="qEij2Yaas0XUPH2C4u36-17" value="&lt;font&gt;&lt;span style=&quot;font-size: 18px&quot;&gt;order-service&lt;br&gt;&lt;/span&gt;&lt;font color=&quot;#3333ff&quot; style=&quot;font-size: 16px&quot;&gt;*spring-boot&lt;/font&gt;&lt;br&gt;&lt;/font&gt;" style="ellipse;whiteSpace=wrap;html=1;" vertex="1" parent="1">
          <mxGeometry x="60" y="260" width="120" height="80" as="geometry" />
        </mxCell>
        <mxCell id="qEij2Yaas0XUPH2C4u36-18" value="&lt;font&gt;&lt;span style=&quot;font-size: 18px&quot;&gt;product-service&lt;br&gt;&lt;/span&gt;&lt;font color=&quot;#3333ff&quot; style=&quot;font-size: 16px&quot;&gt;*spring-boot&lt;/font&gt;&lt;br&gt;&lt;/font&gt;" style="ellipse;whiteSpace=wrap;html=1;" vertex="1" parent="1">
          <mxGeometry x="200" y="260" width="120" height="80" as="geometry" />
        </mxCell>
        <mxCell id="qEij2Yaas0XUPH2C4u36-19" value="&lt;font&gt;&lt;span style=&quot;font-size: 18px&quot;&gt;content-service&lt;br&gt;&lt;/span&gt;&lt;font color=&quot;#3333ff&quot; style=&quot;font-size: 16px&quot;&gt;*spring&lt;/font&gt;&lt;br&gt;&lt;/font&gt;" style="ellipse;whiteSpace=wrap;html=1;" vertex="1" parent="1">
          <mxGeometry x="200" y="160" width="120" height="80" as="geometry" />
        </mxCell>
        <mxCell id="qEij2Yaas0XUPH2C4u36-20" value="&lt;font&gt;&lt;span style=&quot;font-size: 18px&quot;&gt;tools-service&lt;br&gt;&lt;/span&gt;&lt;font color=&quot;#3333ff&quot; style=&quot;font-size: 16px&quot;&gt;*spring-boot&lt;/font&gt;&lt;br&gt;&lt;/font&gt;" style="ellipse;whiteSpace=wrap;html=1;" vertex="1" parent="1">
          <mxGeometry x="900" y="260" width="120" height="80" as="geometry" />
        </mxCell>
        <mxCell id="qEij2Yaas0XUPH2C4u36-21" value="&lt;font&gt;&lt;span style=&quot;font-size: 18px&quot;&gt;yx-service&lt;br&gt;&lt;/span&gt;&lt;font style=&quot;font-size: 16px&quot; color=&quot;#3333ff&quot;&gt;*spring-boot&lt;/font&gt;&lt;br&gt;&lt;/font&gt;" style="ellipse;whiteSpace=wrap;html=1;" vertex="1" parent="1">
          <mxGeometry x="620" y="360" width="120" height="80" as="geometry" />
        </mxCell>
        <mxCell id="qEij2Yaas0XUPH2C4u36-22" value="&lt;font&gt;&lt;span style=&quot;font-size: 18px&quot;&gt;jd-service&lt;br&gt;&lt;/span&gt;&lt;font style=&quot;font-size: 16px&quot; color=&quot;#3333ff&quot;&gt;*spring-boot&lt;/font&gt;&lt;br&gt;&lt;/font&gt;" style="ellipse;whiteSpace=wrap;html=1;" vertex="1" parent="1">
          <mxGeometry x="900" y="360" width="120" height="80" as="geometry" />
        </mxCell>
        <mxCell id="qEij2Yaas0XUPH2C4u36-23" value="&lt;font&gt;&lt;span style=&quot;font-size: 18px&quot;&gt;yx-openApi&lt;br&gt;&lt;/span&gt;&lt;font style=&quot;font-size: 16px&quot; color=&quot;#3333ff&quot;&gt;*spring-boot&lt;/font&gt;&lt;br&gt;&lt;/font&gt;" style="ellipse;whiteSpace=wrap;html=1;" vertex="1" parent="1">
          <mxGeometry x="1040" y="360" width="120" height="80" as="geometry" />
        </mxCell>
        <mxCell id="qEij2Yaas0XUPH2C4u36-24" value="&lt;font&gt;&lt;span style=&quot;font-size: 18px&quot;&gt;scm-res&lt;br&gt;&lt;/span&gt;&lt;font style=&quot;font-size: 16px&quot; color=&quot;#3333ff&quot;&gt;*spring&lt;/font&gt;&lt;br&gt;&lt;/font&gt;" style="ellipse;whiteSpace=wrap;html=1;" vertex="1" parent="1">
          <mxGeometry x="760" y="360" width="120" height="80" as="geometry" />
        </mxCell>
        <mxCell id="qEij2Yaas0XUPH2C4u36-25" value="&lt;font&gt;&lt;font&gt;&lt;font style=&quot;font-size: 18px&quot;&gt;shop-service&lt;/font&gt;&lt;br&gt;&lt;/font&gt;&lt;font style=&quot;font-size: 16px&quot; color=&quot;#3333ff&quot;&gt;*spring-boot&lt;/font&gt;&lt;br&gt;&lt;/font&gt;" style="ellipse;whiteSpace=wrap;html=1;fillColor=#fff2cc;strokeColor=#d6b656;" vertex="1" parent="1">
          <mxGeometry x="340" y="160" width="120" height="80" as="geometry" />
        </mxCell>
        <mxCell id="qEij2Yaas0XUPH2C4u36-26" value="&lt;font&gt;&lt;font&gt;&lt;font style=&quot;font-size: 18px&quot;&gt;config-service&lt;/font&gt;&lt;br&gt;&lt;/font&gt;&lt;font style=&quot;font-size: 16px&quot; color=&quot;#3333ff&quot;&gt;*spring-boot&lt;/font&gt;&lt;br&gt;&lt;/font&gt;" style="ellipse;whiteSpace=wrap;html=1;fillColor=#f5f5f5;strokeColor=#666666;fontColor=#333333;" vertex="1" parent="1">
          <mxGeometry x="60" y="360" width="120" height="80" as="geometry" />
        </mxCell>
        <mxCell id="qEij2Yaas0XUPH2C4u36-27" value="&lt;font&gt;&lt;font&gt;&lt;font style=&quot;font-size: 18px&quot;&gt;config-site&lt;/font&gt;&lt;br&gt;&lt;/font&gt;&lt;font style=&quot;font-size: 16px&quot; color=&quot;#3333ff&quot;&gt;*react&lt;/font&gt;&lt;br&gt;&lt;/font&gt;" style="ellipse;whiteSpace=wrap;html=1;fillColor=#f5f5f5;strokeColor=#666666;fontColor=#333333;" vertex="1" parent="1">
          <mxGeometry x="200" y="360" width="120" height="80" as="geometry" />
        </mxCell>
      </root>
    </mxGraphModel>
  </diagram>
</mxfile>
